<svg id="Layer_1" data-name="Layer 1" xmlns="http://www.w3.org/2000/svg" viewBox="0 0 110.27 105.77"><defs><style>.cls-1{fill:#26292d;}</style></defs><polygon class="cls-1" points="110.27 87.87 97.53 105.77 99.28 105.77 110.27 90.32 110.27 87.87"/><path class="cls-1" d="M23.22,105.77H25L1.86,73.05,67.4,9,27,58.44,40.58,77l-4.37,9.93L49.6,105.77h1.75l-13.51-19,3.71-8.43,20.06,27.35-.32.08h2.49L74.21,4.22l.23-.54.23.53L85.1,105.77h2.49l-.32-.08,20.06-27.35L110.27,85V81.47l-2-4.46,2-2.68V71.92l-2.63,3.59L76.8,5.52l33.47,40.92V44.19L81.49,9l28.78,28.14v-2L74.61.28V.15l-.06.08,0,0,0-.21-.12.11L74.32,0l0,.21,0,0L74.26.15V.28L0,72.88Zm83.44-28.94-19.82,27L76.7,8.8ZM62,103.87l-19.83-27,30-68ZM41.24,75.51l-12.47-17,43.31-53Z"/></svg>