<?xml version="1.0" encoding="utf-8"?>
<svg fill="currentColor" viewBox="0 0 896 1024" role="img">
  <path d="M750.6252,63 L896.0002,223 L750.6252,383 L704.0002,339.594 L780.807,255.06 L179.0074,254.909 L178.9774,254.909 C147.0174,254.909 117.0004,268.239 94.4554,292.446 C71.9454,316.615 59.6154,348.704 59.7374,382.802 C59.9914,453.334 113.4824,511 178.9784,511 L717.0204,511 C764.8314,511 809.7404,530.399 843.4754,566.14 C877.3464,602.026 896.0004,649.93 896.0004,701.029 L896.0004,701.689 C896.0004,752.688 877.3844,800.818 843.5834,837.211 C809.9954,873.375 765.2134,893.895 717.4864,894.992 L717.1364,895 L276.310151,895.001486 C261.798404,956.828303 206.189494,1003 140,1003 C62.804,1003 0,940.196 0,863 C0,785.804 62.804,723 140,723 C206.189852,723 261.799004,769.172196 276.310386,830.999515 L716.5394,831 C748.5984,830.173 778.6564,816.448 801.2074,792.166 C823.8134,767.826 836.2624,735.694 836.2624,701.689 L836.2624,701.029 C836.2624,667.119 823.8964,635.341 801.4404,611.55 C778.9654,587.739 748.9844,575 717.0204,575 L178.9784,575 C80.6694,575 0.0014,489 0.0014,383.047 C0.0014,332 18.3334,283.634 52.1394,247.337 C85.9744,211.008 131.0224,191 178.9774,191 L179.0224,191 L781.009,191.162 L704.0002,106.406 L750.6252,63 Z M140,787 C98.093,787 64,821.094 64,863 C64,904.906 98.093,939 140,939 C181.907,939 216,904.906 216,863 C216,821.094 181.907,787 140,787 Z" />
</svg>
