<?xml version="1.0" encoding="utf-8"?>
<svg fill="currentColor" viewBox="0 0 1024 1024" role="img">
  <path d="M879.0474,64.5 L1024.3914,224.5 L879.0474,384.5 L832.4324,341.094 L909.276499,256.5 L180.1341,256.5 C148.0811,257.327 118.0301,271.052 95.4831,295.334 C72.8821,319.674 60.4361,351.806 60.4361,385.811 L60.4361,386.471 C60.4361,420.381 72.7991,452.159 95.2501,475.95 C117.7211,499.761 147.6961,512.5 179.6531,512.5 L323.373499,512.5 L512.4992,367.3227 L701.624499,512.5 L845.5586,512.5 C892.8806,512.5 937.36031,531.51296 970.971417,566.572676 L971.9866,567.64 C1005.8506,603.526 1024.4996,651.43 1024.4996,702.529 L1024.4996,703.189 C1024.4996,754.188 1005.8886,802.318 972.0946,838.711 C938.5136,874.875 893.7406,895.395 846.0236,896.492 L845.6746,896.5 L31.2476,896.5 C14.7556,896.466 0.4686,881.3 0.499549646,863.652 C0.5316,846.026 14.7836,832.5 31.2476,832.5 L845.0776,832.5 C877.1296,831.673 907.1816,817.948 929.7276,793.666 C952.3286,769.326 964.7756,737.194 964.7756,703.189 L964.7756,702.529 C964.7756,668.619 952.4116,636.841 929.9606,613.05 C907.4896,589.239 877.5156,576.5 845.5586,576.5 L703.333499,576.5 L512.4992,720.9647 L321.665499,576.5 L179.6531,576.5 C132.33011,576.5 87.8513702,557.48704 54.240283,522.427324 L53.2251,521.36 C19.3611,485.474 0.7111,437.57 0.7111,386.471 L0.7111,385.811 C0.7111,334.812 19.3221,286.682 53.1161,250.289 C86.6971,214.125 131.4701,193.605 179.1871,192.508 L179.5371,192.5 L909.276499,192.5 L832.4324,107.906 L879.0474,64.5 Z M512.4992,450.3267 L389.4332,544.7967 L512.4992,637.9607 L635.5662,544.7967 L512.4992,450.3267 Z" />
</svg>
