<?xml version="1.0" encoding="utf-8"?>
<svg fill="currentColor" viewBox="0 0 1024 1024" role="img">
  <path d="M1024,510.7 C1024,792 794.9,1024.00021 512.4,1024.00021 C388.668224,1024.11325 269.125954,979.1827 176.1,897.6 C169.45563,891.760091 165.516671,883.436406 165.213772,874.595567 C164.910874,865.754728 168.270907,857.18097 174.5,850.9 L219.7,805.6 C231.508491,793.799334 250.40463,793.059163 263.1,803.9 C332.478839,863.336159 420.843144,895.971711 512.2,895.9 C723.8,896 896,723.8 896,512 C896,300.2 723.8,128 512.2,128 C406.4,128 310.5,171.1 241,240.5 L329.8,329.3 C350,349.5 335.7,384 307.2,384 L32.5,384 C14.8,384.1 0,369.7 0,352 L0,77.3 C0,48.8 35,34.5 55.1,54.7 L150.6,150.2 C242.4,58.4 368.7,-2.27373675e-13 508.2,-2.27373675e-13 C789,-2.27373675e-13 1023.3,226.2 1024,510.7 M576.5,560 L576.5,272 C576.5,263.163444 569.336556,256 560.5,256 L528.5,256 C519.663444,256 512.5,263.163444 512.5,272 L512.5,512 L336.5,512 C327.663444,512 320.5,519.163444 320.5,528 L320.5,560 C320.5,568.836556 327.663444,576 336.5,576 L560.5,576 C569.336556,576 576.5,568.836556 576.5,560" />
</svg>
