<?xml version="1.0" encoding="utf-8"?>
<svg fill="currentColor" viewBox="0 0 896 1024" role="img">
  <path d="M768,768 C732.654,768 704,739.346 704,704 C704,668.654 732.654,640 768,640 C803.346,640 832,668.654 832,704 C832,739.346 803.346,768 768,768 L768,768 Z M768,576 C697.308,576 640,633.308 640,704 C640,774.692 697.308,832 768,832 C838.692,832 896,774.692 896,704 C896,633.308 838.692,576 768,576 L768,576 Z M128,384 C92.654,384 64,355.346 64,320 C64,284.654 92.654,256 128,256 C163.346,256 192,284.654 192,320 C192,355.346 163.346,384 128,384 L128,384 Z M128,192 C57.308,192 0,249.308 0,320 C0,390.692 57.308,448 128,448 C198.692,448 256,390.692 256,320 C256,249.308 198.692,192 128,192 L128,192 Z M658.229,769.862 L448,896 L128,704 L128,448 C151.315,448 173.172,441.763 192,430.872 L192,665.7 L448,819.2 L640.001,704.074 C640.015,728.135 646.671,750.64 658.229,769.862 L658.229,769.862 Z M704,358.7 L551.526,267.275 C564.619,249.299 573.145,227.788 575.397,204.438 L768,320 L768,576 C744.685,576 722.828,582.237 704,593.128 L704,358.7 Z M237.771,254.138 L320.603,204.438 C322.855,227.788 331.381,249.3 344.474,267.275 L255.996,320.328 C255.996,320.218 256,320.109 256,320 C256,295.911 249.341,273.38 237.771,254.138 L237.771,254.138 Z M448,256 C412.654,256 384,227.346 384,192 C384,156.654 412.654,128 448,128 C483.346,128 512,156.654 512,192 C512,227.346 483.346,256 448,256 L448,256 Z M448,64 C377.308,64 320,121.308 320,192 C320,262.692 377.308,320 448,320 C518.692,320 576,262.692 576,192 C576,121.308 518.692,64 448,64 L448,64 Z" />
</svg>
