<?xml version="1.0" encoding="utf-8"?>
<svg fill="currentColor" viewBox="0 0 1024 1024" role="img">
  <path d="M768,704 L768,720 C768,746.509668 746.509668,768 720,768 L304,768 C277.490332,768 256,746.509668 256,720 L256,704 L0,704 L0,928 C0,981.019336 42.980664,1024 96,1024 L928,1024 C981.019336,1024 1024,981.019336 1024,928 L1024,704 L768,704 Z M0,640 L256,640 L256,384 L0,384 L0,640 Z M768,640 L1024,640 L1024,384 L768,384 L768,640 Z M0,320 L0,96 C0,42.980664 42.980664,0 96,0 L928,0 C981.019336,0 1024,42.980664 1024,96 L1024,320 L768,320 L768,304 C768,277.490332 746.509668,256 720,256 L304,256 C277.490332,256 256,277.490332 256,304 L256,320 L0,320 Z" />
</svg>
