<?xml version="1.0" encoding="utf-8"?>
<svg fill="currentColor" viewBox="0 0 1116 1024" role="img">
  <path d="M1006.91,504.51 C1002.0573,439.787297 984.864829,376.59097 956.26,318.33 L1116.69,260.14 C1104.01926,234.33374 1089.19332,209.642796 1072.37,186.33 L999.29,212.85 C906.31,83.91 754.83,0 583.75,0 C300.98,0 71.75,229.23 71.75,512 C71.75,524.38 72.1866667,536.656667 73.06,548.83 L146.17,522.33 C148.200448,550.867511 152.626027,579.183857 159.4,606.98 L-1,665.15 C14.4544867,728.332438 41.8610187,787.972364 79.74,840.85 L167.09,809.17 C260,938.97 412,1023.56 583.75,1023.56 C866.52,1023.56 1095.75,794.33 1095.75,511.56 C1095.75,498.526667 1095.26667,485.613333 1094.3,472.82 L1006.91,504.51 Z M786.38,379.93 C814.645405,429.864006 829.462101,486.281159 829.38,543.66 C829.38,552.42 829.046667,561.086667 828.38,569.66 L915.69,537.98 C902.19,709.55 758.74,844.530218 583.75,844.530218 C494.136383,844.632572 408.289413,808.493313 345.73,744.33 L258.38,776.02 C212.04846,728.757237 180.89298,668.730618 168.91,603.64 L329.32,545.46 C325.681927,525.572976 323.854446,505.397053 323.86,485.18 C323.86,475.73 324.28,466.37 325.05,457.11 L252,483.65 C266.38,313.02 409.41,179.02973 583.75,179.02973 C672.657058,178.916588 757.893117,214.475742 820.36,277.74 L893.45,251.23 C914.280407,272.266843 932.224012,295.977555 946.81,321.74 L786.38,379.93 Z" />
</svg>
