<?xml version="1.0" encoding="utf-8"?>
<svg fill="currentColor" viewBox="0 0 1024 1024" role="img">
  <path d="M.8,403.4c.2,25.2,0,28.2-.1,39.9,0-10.5,0-23.3.1-39.9ZM1023.2,389.4c0,1.7,0,3.4,0,5.2v8.7-13.9h0ZM1023.5,475h0v-32.2c0,6.4.2,15.3.2,32.2h-.2ZM1023.9,577.1c0,31.9-31.9,62.8-63.9,62.8H63.9C31.9,639.9,0,609,0,577.1c.4-62,.1-168.9.2-182.1,1.2-24.9,12.9-43.4,35-56.5,147.1-87.4,265.8-153.3,412.7-240.8,13.6-6.8,27.2-11.4,40.8-13.8,15.3-2.8,31.1-2.8,46.4,0,13.6,2.5,27.2,7.1,40.8,13.8,147,87.5,265.7,153.4,412.7,240.8,22.5,13.2,34.3,32.4,35,57.7,0,4.4-.2,131.6.2,180.8h0ZM.5,475c0-16.4,0-25.3.1-31.7v31.7h-.1ZM.7,394.6c0-1.8,0-3.5.1-5.2v13.8-8.6h-.1ZM1023.3,442.7c0-11.2-.3-14.6,0-39.3,0,16.3,0,29,0,39.3ZM63.9,752.1h896.1c35.3,0,64,28.3,64,63.3v63.3c0,34.9-28.6,63.3-64,63.3H63.9c-35.3.1-63.9-28.2-63.9-63.2v-63.3c0-34.9,28.6-63.3,64-63.3h0Z" />
</svg>
