<?xml version="1.0" encoding="utf-8"?>
<svg fill="currentColor" viewBox="0 0 1024 1024" role="img">
  <path d="M0,963.4c0,23.2,10.8,40.4,30.7,51.6,20.8,11.7,42.1,12.5,63.1-.5l378.6-235.6c26.5-16.7,51.7-16.4,78.7.5,123.5,77.3,247.6,153.5,371.2,230.7,22.9,14.3,44.9,18.7,69.3,5.3,24.5-13.5,32.5-35,32.3-61.5-.4-49.4,0-41.9,0-91.4s-.3-476.6,0-526.5c.2-27.6-11.5-47.8-35.1-61.9C841.8,186.5,694.7,98.6,547.8,10.8c-24.5-14.6-48.1-14.4-72.4.2C327.5,99.4,179.5,187.8,31.7,276.2,10.6,288.8,0,307.7,0,332.3v631.1H0Z" />
</svg>
