<?xml version="1.0" encoding="utf-8"?>
<svg fill="currentColor" viewBox="0 0 1024 1024" role="img">
  <path d="M1023.9,538.3c0-49.4-.3-41.9,0-91.3.2-26.4-7.8-48-32.3-61.4-24.4-13.4-46.5-9-69.3,5.3-123.5,77.1-247.6,153.3-371,230.5-27,16.9-52.3,17.2-78.7.5L94.3,386.5c-20.9-13-42.2-12.2-63.1-.5-19.9,11.1-30.7,28.4-30.7,51.6v254.3c0,24.6,10.6,43.5,31.7,56.1,147.8,88.4,295.6,176.5,443.4,265,24.4,14.6,48,14.8,72.4.2,146.9-87.9,293.9-175.6,441-263.3,23.6-14.1,35.3-34.2,35.1-61.8-.4-49.9,0-99.9,0-149.8h0ZM1024.4,177.2c0-9.7,0-12.2-.2-10.3,0-32.3,0-64.6.2-96.9.2-26.4-7.8-48-32.3-61.4-24.4-13.4-46.5-9-69.3,5.3-123.5,77.1-247.6,153.3-371,230.5-27,16.9-52.3,17.2-78.7.5L94.7,9.7c-20.9-13-42.2-12.2-63.1-.5C11.7,20.3.9,37.5.9,60.7v120.3c0,24.6,10.6,43.5,31.7,56.1,147.8,88.4,295.6,176.5,443.4,265,24.4,14.6,48,14.8,72.4.2,146.9-87.9,293.9-175.6,441-263.3,21.4-12.8,33.1-30.6,34.9-54.4,0,25.1,0,63.7,0,33.8v-35.1c0-2,.2-4,.2-6.1h-.2Z" />
</svg>
