<?xml version="1.0" encoding="utf-8"?>
<svg fill="currentColor" viewBox="0 0 1024 1024" role="img">
  <path d="M1110.73911,0 L41.1428663,0 C18.4204327,0 0,19.1026667 0,42.6666667 L0,127.877333 C0,151.509333 18.473147,170.666667 41.2611521,170.666667 L1110.73911,170.666667 C1133.52711,170.666667 1152.00026,151.509333 1152.00026,127.877333 L1152.00026,42.7893333 C1152.00026,19.1573333 1133.52711,0 1110.73911,0 M1110.73911,426.666667 L452.57153,426.666667 C429.849096,426.666667 411.428663,445.769333 411.428663,469.333333 L411.428663,554.544 C411.428663,578.176 429.90181,597.333333 452.689815,597.333333 L1110.73911,597.333333 C1133.52711,597.333333 1152.00026,578.176 1152.00026,554.544 L1152.00026,469.456 C1152.00026,445.824 1133.52711,426.666667 1110.73911,426.666667 M308.571497,469.333333 L82.2857327,469.333333 L82.2857327,277.333333 C82.2857327,265.550667 73.0748735,256 61.7142995,256 L20.5714332,256 C9.20957348,256 0,265.550667 0,277.333333 L0,490.666667 L0,533.333333 L0,896 L0,960 C0,971.782667 9.20957348,981.333333 20.5714332,981.333333 L61.7142995,981.333333 L308.571497,981.333333 C319.932071,981.333333 329.142931,971.782667 329.142931,960 L329.142931,917.333333 C329.142931,905.550667 319.932071,896 308.571497,896 L82.2857327,896 L82.2857327,554.666667 L308.571497,554.666667 C319.932071,554.666667 329.142931,545.116 329.142931,533.333333 L329.142931,490.666667 C329.142931,478.884 319.932071,469.333333 308.571497,469.333333 M1152.00026,896.122667 L1152.00026,981.210667 C1152.00026,1004.84267 1133.52711,1024 1110.73911,1024 L452.689815,1024 C429.90181,1024 411.428663,1004.84267 411.428663,981.210667 L411.428663,896 C411.428663,872.436 429.849096,853.333333 452.57153,853.333333 L1110.73911,853.333333 C1133.52711,853.333333 1152.00026,872.490667 1152.00026,896.122667" />
</svg>
