<?xml version="1.0" encoding="utf-8"?>
<!-- Generator: Adobe Illustrator 20.1.0, SVG Export Plug-In . SVG Version: 6.00 Build 0)  -->
<svg version="1.1" id="Layer_1" xmlns="http://www.w3.org/2000/svg" xmlns:xlink="http://www.w3.org/1999/xlink" x="0px" y="0px"
	 viewBox="0 0 32 32" style="enable-background:new 0 0 32 32;" xml:space="preserve">
<style type="text/css">
	.st0{clip-path:url(#SVGID_2_);fill:#F0D6B7;}
	.st1{clip-path:url(#SVGID_2_);fill:#335061;}
	.st2{clip-path:url(#SVGID_2_);fill:#6D6B6D;}
	.st3{clip-path:url(#SVGID_2_);fill:#DCD9D8;}
	.st4{clip-path:url(#SVGID_2_);fill:#F7E4CD;}
	.st5{clip-path:url(#SVGID_2_);fill:#49728B;}
	.st6{clip-path:url(#SVGID_2_);fill:#FFFFFF;}
	.st7{clip-path:url(#SVGID_2_);fill:#D33833;}
	.st8{clip-path:url(#SVGID_2_);fill:#EF3D3A;}
	.st9{clip-path:url(#SVGID_2_);fill:#231F20;}
	.st10{clip-path:url(#SVGID_2_);fill:#81B0C4;}
	.st11{clip-path:url(#SVGID_2_);fill:#1D1919;}
</style>
<g>
	<g>
		<defs>
			<rect id="SVGID_1_" x="0.06" width="32" height="32"/>
		</defs>
		<clipPath id="SVGID_2_">
			<use xlink:href="#SVGID_1_"  style="overflow:visible;"/>
		</clipPath>
		<polyline class="st0" points="23.96,25.01 21.2,25.42 17.47,25.84 15.06,25.91 12.71,25.84 10.91,25.29 9.32,23.56 8.08,20.04 
			7.8,19.28 6.15,18.73 5.18,17.14 4.49,14.86 5.25,12.86 7.04,12.23 8.5,12.92 9.19,14.44 10.01,14.31 10.29,13.96 10.01,12.37 
			9.95,10.37 10.36,7.61 10.34,6.03 11.6,4.02 13.81,2.43 17.68,0.77 21.96,1.39 25.69,4.08 27.42,6.85 28.52,8.85 28.8,13.82 
			27.97,18.1 26.45,21.9 25,23.9 		"/>
		<polyline class="st1" points="21.62,36.96 11.74,37.37 11.74,39.03 12.57,44.83 12.16,45.31 5.25,42.96 4.77,42.14 4.08,34.33 
			2.49,29.64 2.14,28.53 7.67,24.73 9.39,24.04 10.91,25.91 12.22,27.08 13.74,27.56 14.43,27.77 15.26,31.36 15.88,32.12 
			17.47,31.57 16.37,33.71 22.38,36.54 21.62,36.96 		"/>
		<polyline class="st2" points="5.25,12.86 7.04,12.23 8.5,12.92 9.19,14.44 10.01,14.31 10.22,13.48 9.81,11.89 10.22,8.09 
			9.88,6.02 11.12,4.57 13.81,2.43 13.05,1.39 9.25,3.26 7.67,4.5 6.77,6.43 5.39,8.3 4.97,10.51 5.25,12.86 		"/>
		<path class="st3" d="M8.08,6.36c0,0,1.04-2.56,5.18-3.8c4.14-1.24,0.21-0.9,0.21-0.9L8.98,3.39L7.25,5.12L6.49,6.5L8.08,6.36"/>
		<path class="st3" d="M6.01,12.37c0,0-1.45-4.83,4.07-5.52L9.88,6.02l-3.8,0.9l-1.11,3.59l0.28,2.35L6.01,12.37"/>
		<path class="st4" d="M8.22,18.79l0.9-0.88c0,0,0.41,0.05,0.48,0.53c0.07,0.48,0.28,4.83,3.25,7.18c0.27,0.21-2.21-0.35-2.21-0.35
			l-2.21-3.45"/>
		<path class="st4" d="M20.93,17.48c0,0,0.16-2.09,0.72-1.93s0.56,0.72,0.56,0.72S20.85,17.16,20.93,17.48"/>
		<path class="st4" d="M26.66,9.82c0,0-1.14,0.24-1.24,1.24c-0.1,1,1.24,0.21,1.45,0.14"/>
		<path class="st4" d="M18.3,9.89c0,0-1.52,0.21-1.52,1.17c0,0.97,1.73,0.9,2.21,0.48"/>
		<path class="st4" d="M8.91,14.37c0,0-2.62-1.59-2.9-0.07c-0.28,1.52-0.9,2.62,0.41,4.21l-0.9-0.28L4.7,16.1l-0.28-2.07l1.59-1.66
			l1.8,0.14l1.04,0.83L8.91,14.37"/>
		<path class="st4" d="M10.15,10.02c0,0,1.17-6.08,7.11-7.25c4.89-0.97,7.46,0.21,8.43,1.31c0,0-4.35-5.18-8.49-3.59
			c-4.14,1.59-7.18,4.49-7.11,6.35C10.2,10.02,10.15,10.02,10.15,10.02"/>
		<path class="st4" d="M26.17,4.78c0,0-2-0.07-2.07,1.73c0,0,0,0.28,0.14,0.55c0,0,1.59-1.8,2.56-0.83"/>
		<path class="st4" d="M17.4,7.24c0,0-0.34-2.76-2.69-1.15c-1.52,1.04-1.38,2.49-1.1,2.76c0.28,0.28,0.2,0.83,0.41,0.45
			c0.21-0.38,0.14-1.62,0.9-1.97C15.68,6.99,16.92,6.6,17.4,7.24"/>
		<path class="st5" d="M10.91,25.91l-6.49,2.9c0,0,2.69,10.7,1.31,14.02l-0.97-0.35L4.7,38.41l-1.8-7.73l-0.76-2.14l6.77-4.56
			L10.91,25.91"/>
		<path class="st5" d="M11.58,31.83l0.92,1.12v4.14H11.4c0,0-0.14-2.9-0.14-3.25c0-0.35,0.14-1.59,0.14-1.59"/>
		<path class="st1" d="M22.93,37.03l3.87-0.21c0,0,1.59-4.01,1.59-4.21s1.38-5.8,1.38-5.8l-3.11-3.25l-0.62-0.55l-1.66,1.66v6.42
			L22.93,37.03"/>
		<polyline class="st5" points="24.72,24.46 29.56,28.05 29.7,26.39 26.04,23.01 24.72,24.46 		"/>
		<path class="st6" d="M22.77,36.47l-1.52-3.87l-1.59-2.28c0,0,0.35-0.97,0.83-0.97s1.59,0,1.59,0l1.52,0.55l-0.14,2.56L22.77,36.47
			"/>
		<path class="st3" d="M23.07,35.16c0,0-1.93-3.73-1.93-4.28c0,0,0.35-0.83,0.83-0.62s1.52,0.76,1.52,0.76v-1.31l-2.35-0.48
			l-1.59,0.21l2.69,6.35l0.55,0.07"/>
		<polyline class="st6" points="14.62,26.05 12.71,25.84 10.91,25.29 10.91,25.91 11.79,26.87 14.55,28.12 		"/>
		<path class="st3" d="M11.53,26.25c0,0,2.14,0.9,2.83,0.69l0.07,0.83l-1.93-0.41l-1.17-0.83L11.53,26.25"/>
		<path class="st7" d="M25.52,29.6c-1.17-0.03-2.23-0.17-3.16-0.44c0.06-0.38-0.05-0.75,0.04-1.03c0.26-0.19,0.69-0.18,1.08-0.23
			c-0.34-0.17-0.81-0.23-1.2-0.14c-0.01-0.26-0.13-0.43-0.2-0.63c0.66-0.24,2.21-1.78,3.09-1.27c0.42,0.24,0.59,1.63,0.63,2.3
			C25.83,28.74,25.75,29.3,25.52,29.6"/>
		<path class="st7" d="M19.92,27.68l-0.01,0.27c-0.37,0.24-0.96,0.24-1.36,0.44c0.59,0.03,1.06,0.17,1.46,0.37
			c-0.01,0.22-0.02,0.45-0.03,0.67c-0.67,0.46-1.28,1.14-2.07,1.57c-0.37,0.2-1.68,0.73-2.08,0.63c-0.22-0.05-0.24-0.33-0.33-0.59
			c-0.19-0.56-0.63-1.46-0.67-2.31c-0.05-1.07-0.16-2.86,1-2.64c0.93,0.18,2.01,0.61,2.73,1C19,27.33,19.25,27.63,19.92,27.68"/>
		<path class="st7" d="M20.59,28.96c-0.1-0.58-0.22-0.75-0.17-1.26C21.97,26.66,22.26,29.48,20.59,28.96"/>
		<path class="st7" d="M20.98,29.52c-0.17,0-0.35-0.03-0.54-0.09l-0.29-0.09l-0.05-0.3c-0.03-0.17-0.06-0.31-0.09-0.43
			c-0.07-0.29-0.13-0.54-0.09-0.96l0.02-0.24l0.2-0.13c0.92-0.61,1.52-0.17,1.68-0.01c0.43,0.41,0.53,1.14,0.22,1.67
			C21.81,29.32,21.44,29.52,20.98,29.52z M20.91,28c0.01,0.12,0.03,0.23,0.07,0.39l0.03,0.14l0.16-0.09
			c0.08-0.13,0.04-0.36-0.04-0.43C21.09,27.95,21,27.96,20.91,28z"/>
		<path class="st8" d="M22.84,29.43c0,0-0.48-0.69-0.14-0.9c0.35-0.21,0.69,0,0.9-0.35c0.21-0.35,0-0.55,0.07-0.97
			s0.41-0.48,0.76-0.55c0.35-0.07,1.31-0.21,1.45,0.14l-0.41-1.24l-0.83-0.28l-2.62,1.52l-0.14,0.76v1.52"/>
		<path class="st8" d="M15.59,31.71c-0.08-1.08-0.17-2.15-0.27-3.23c-0.15-1.61,0.39-1.33,1.78-1.33c0.21,0,1.31,0.25,1.39,0.41
			c0.38,0.77-0.63,0.6,0.43,1.18c0.9,0.49,2.48-0.3,2.12-1.39c-0.2-0.24-1.06-0.08-1.36-0.23c-0.54-0.28-1.08-0.56-1.62-0.84
			c-0.69-0.36-2.27-0.88-3-0.38c-1.85,1.26,0.12,4.41,0.78,5.73"/>
		<path class="st9" d="M17.4,7.24c-1.88-0.44-2.82,0.79-3.39,2.06c-0.51-0.12-0.31-0.82-0.18-1.17c0.34-0.93,1.69-2.16,2.8-1.99
			C17.12,6.21,17.77,6.65,17.4,7.24"/>
		<path class="st9" d="M26.58,9.38l0.09,0c0.43,0.88,0.79,1.82,1.33,2.6c-0.36,0.84-2.72,1.58-2.69,0.07
			c0.51-0.22,1.39-0.05,1.85-0.33C26.89,11.01,26.52,10.4,26.58,9.38"/>
		<path class="st9" d="M18.37,9.41c0.4,0.74,0.53,1.52,1.11,2.08c0.26,0.25,0.76,0.56,0.51,1.26c-0.06,0.17-0.48,0.53-0.73,0.61
			c-0.9,0.26-2.99,0.05-2.28-1.06c0.74,0.03,1.74,0.48,2.29-0.06C18.85,11.55,18.09,10.2,18.37,9.41"/>
		<path class="st9" d="M26.24,16.93c-1.35,0.87-2.86,1.81-5.07,1.59c-0.47-0.41-0.65-1.33-0.19-1.93c0.24,0.41,0.09,1.17,0.76,1.28
			c1.26,0.21,2.72-0.77,3.62-1.11c0.56-0.94-0.05-1.29-0.55-1.9c-1.03-1.24-2.42-2.79-2.37-4.65c0.42-0.3,0.45,0.46,0.51,0.6
			c0.54,1.26,1.9,2.88,2.89,3.96c0.24,0.27,0.64,0.52,0.69,0.7C26.65,15.97,26.19,16.59,26.24,16.93"/>
		<path class="st9" d="M8.44,16.01c-0.42-0.24-0.52-1.31-1.02-1.34c-0.71-0.04-0.58,1.38-0.58,2.21c-0.49-0.44-0.57-1.81-0.22-2.51
			c-0.41-0.2-0.59,0.22-0.82,0.37C6.1,12.63,8.9,13.77,8.44,16.01"/>
		<path class="st9" d="M27.1,17.81c-0.63,1.2-1.52,2.51-3.36,2.55c-0.04-0.39-0.07-0.97,0-1.21C25.15,19.02,26.02,18.3,27.1,17.81"
			/>
		<path class="st9" d="M18.26,18.59c1.18,0.62,3.34,0.69,4.94,0.64c0.09,0.35,0.08,0.78,0.09,1.21
			C21.23,20.54,18.8,20.03,18.26,18.59"/>
		<path class="st9" d="M18.04,19.74c0.81,2.04,3.61,1.81,5.97,1.75c-0.1,0.27-0.33,0.58-0.61,0.69c-0.76,0.31-2.84,0.54-3.89-0.02
			c-0.67-0.35-1.09-1.15-1.46-1.62C17.88,20.32,17,19.74,18.04,19.74"/>
		<path class="st10" d="M26.14,31.01c-0.95,1.64-1.87,3.31-3,4.76c0.47-1.4,0.68-3.73,0.75-5.51
			C24.88,29.78,25.73,30.35,26.14,31.01"/>
		<path class="st0" d="M22.72,25.82c-0.49,0.32-0.91,0.72-1.38,1.06c-1.05,0.05-1.62-0.07-2.39-0.67l0.09-0.09
			C20.16,26.63,21.59,25.92,22.72,25.82"/>
		<path class="st10" d="M16.84,33.46c0.31-1.33,1.51-2.03,2.61-2.76c1.13,1.44,1.82,3.28,2.58,5.06
			C20.23,35.22,18.4,34.35,16.84,33.46"/>
		<path class="st9" d="M23.13,44.12c-0.05,1.09,0.11,2.84,0.16,3.99c0.73,0,1.04-0.16,1.58-0.34c0.06-1.35-0.43-2.59-0.57-3.82
			C24.01,43.87,23.49,44.15,23.13,44.12z M11.84,37.92c0.48,4.4,1.17,8.09,2.44,11.99c2.82,0.86,6.22,0.93,8.71,0.16
			c-0.46-2.2-0.26-4.87-0.53-7.22c-0.2-1.76-0.1-3.54-0.38-5.33C19.07,36.88,14.8,37.36,11.84,37.92z M22.8,37.54
			c-0.03,1.89,0.08,3.75,0.23,5.64c0.73-0.11,1.22-0.18,1.89-0.33c-0.22-1.82-0.19-3.87-0.64-5.48
			C23.77,37.38,23.32,37.37,22.8,37.54z M26.48,37.23c-0.34-0.08-0.74,0-1.07,0c0.15,1.54,0.53,3.24,0.66,4.85
			c0.52,0.02,0.79-0.23,1.22-0.31C27.31,40.36,27.16,38.41,26.48,37.23z M32.05,42.32c1.08-0.26,1.76-1.58,1.45-2.94
			c-0.2-0.91-0.56-2.63-0.95-3.21c-0.29-0.43-1.06-1-1.68-0.6c-1,0.64-2.77,0.83-3.5,1.61c0.37,1.22,0.48,2.9,0.63,4.45
			c1.25,0.08,2.8-0.35,3.84,0.1c-0.73,0.24-1.67,0.24-2.3,0.58C30.06,42.56,31.27,42.51,32.05,42.32L32.05,42.32z M22.02,35.76
			c-0.76-1.78-1.45-3.63-2.58-5.06c-1.1,0.73-2.3,1.43-2.61,2.76C18.4,34.35,20.23,35.22,22.02,35.76z M23.89,30.25
			c-0.07,1.78-0.27,4.12-0.75,5.51c1.13-1.44,2.05-3.12,3-4.76C25.73,30.35,24.88,29.78,23.89,30.25z M21.77,29.5
			c-0.43-0.05-0.79,0.49-1.35,0.26c-0.13,0.14-0.24,0.29-0.37,0.43c1.23,1.49,1.79,3.59,2.74,5.34c0.51-1.68,0.45-3.51,0.56-5.34
			C22.65,30.23,22.27,29.55,21.77,29.5z M20.41,27.7c-0.05,0.51,0.07,0.67,0.17,1.26C22.26,29.48,21.97,26.66,20.41,27.7z
			 M18.56,27.09c-0.72-0.39-1.8-0.82-2.73-1c-1.15-0.22-1.05,1.57-1,2.64c0.04,0.85,0.48,1.74,0.67,2.31
			c0.09,0.26,0.11,0.54,0.33,0.59c0.4,0.09,1.71-0.43,2.08-0.63c0.79-0.43,1.4-1.11,2.07-1.57c0.01-0.22,0.02-0.45,0.03-0.67
			c-0.4-0.2-0.87-0.34-1.46-0.37c0.4-0.2,0.99-0.2,1.36-0.44l0.01-0.27C19.25,27.63,19,27.33,18.56,27.09z M11.68,25.84
			c-0.6,0.61,1.68,1.43,2.4,1.48c0-0.38,0.22-0.75,0.17-1.02C13.39,26.15,12.26,26.25,11.68,25.84z M19.04,26.13l-0.09,0.09
			c0.77,0.6,1.34,0.73,2.39,0.67c0.47-0.34,0.89-0.74,1.38-1.06C21.59,25.92,20.16,26.63,19.04,26.13z M25.8,28.18
			c-0.03-0.67-0.21-2.06-0.63-2.3c-0.87-0.51-2.43,1.03-3.09,1.27c0.07,0.21,0.19,0.37,0.2,0.63c0.39-0.1,0.86-0.03,1.2,0.14
			c-0.39,0.04-0.82,0.04-1.08,0.23c-0.09,0.27,0.02,0.65-0.04,1.03c0.93,0.26,1.99,0.4,3.16,0.44C25.75,29.3,25.83,28.74,25.8,28.18
			z M10.67,26.43c-0.19-0.13-1.46-1.79-1.63-1.72c-2.3,0.91-4.45,2.47-6.37,3.96c1.83,3.93,2.57,8.74,2.7,13.38
			c2.1,0.98,3.94,2.4,6.79,2.54c-0.33-2.33-0.63-4.41-0.82-6.6c-0.72-0.3-1.74,0.01-2.41-0.09c-0.01-0.81,1.02-0.35,1.11-0.9
			c0.06-0.41-0.57-0.44-0.36-1.09c0.52,0.19,0.8,0.61,1.36,0.77c0.51-1.12-0.01-3.09,0.07-4.02c0.01-0.18,0.09-0.97,0.48-0.83
			c0.35,0.12-0.02,2.11,0.02,3c0.03,0.81-0.1,1.6,0.23,2.11c2.75-0.37,5.55-0.62,8.52-0.7c-0.65-0.28-1.43-0.55-2.29-1.03
			c-0.46-0.26-1.92-0.8-2.05-1.24c-0.21-0.7,0.56-1.07,0.69-1.67c-1.39,0.76-1.66-0.73-1.99-1.78c-0.3-0.95-0.47-1.66-0.54-2.21
			C12.98,27.74,11.7,27.16,10.67,26.43z M24.59,24.91c1.91-0.93,2.26,3.47,1.51,4.89c0.12,0.42,0.52,0.58,0.68,0.96
			c-1.07,1.91-2.26,3.7-3.35,5.59c0.81-0.5,1.97-0.09,2.92-0.47c0.35-0.14,0.6-0.94,0.87-1.58c0.73-1.76,1.49-3.97,1.83-5.65
			c0.08-0.38,0.29-1.22,0.24-1.56c-0.08-0.61-0.91-1.06-1.33-1.44c-0.77-0.7-1.26-1.31-2.07-1.96
			C25.56,24.19,24.86,24.52,24.59,24.91z M6.29,7.93c-0.91,1-0.72,2.89-0.61,4.22C7.33,11.11,9.52,12.23,9.5,14
			c0.79-0.02,0.29-0.98,0.15-1.6c-0.47-2.03,0.78-4.23,0.06-6.08C8.29,6.42,7.13,7,6.29,7.93z M12.82,2.1
			c-2.07,0.59-4.71,2.09-5.56,3.94c0.66-0.1,1.11-0.43,1.76-0.47c0.25-0.02,0.57,0.1,0.85,0.03c0.56-0.14,1.03-1.4,1.46-1.87
			c0.41-0.46,0.91-0.65,1.25-1.07c0.22-0.11,0.54-0.1,0.55-0.43C13.03,2.15,12.93,2.07,12.82,2.1L12.82,2.1z M23.57,2.65
			c-2.14-1.21-5.77-2.12-8.05-0.98c-1.84,0.92-4.33,2.44-5.18,4.36c0.79,1.86-0.23,3.56-0.3,5.44c-0.03,1,0.47,1.88,0.51,2.97
			c-0.27,0.45-1.1,0.5-1.67,0.47c-0.19-0.97-0.53-2.05-1.53-2.16c-1.41-0.15-2.44,1.01-2.5,2.23c-0.08,1.43,1.1,3.8,2.76,3.64
			c0.64-0.06,0.8-0.71,1.5-0.7c0.38,0.76-0.59,1-0.69,1.54c-0.03,0.14,0.08,0.69,0.14,0.94c0.3,1.25,0.98,2.87,1.64,3.82
			c0.84,1.21,2.5,1.39,4.28,1.51c0.32-0.69,1.49-0.63,2.25-0.45c-0.91-0.36-1.77-1.24-2.47-2.02c-0.81-0.89-1.63-1.85-1.67-3.02
			c1.53,2.12,2.79,3.98,5.58,4.91c2.11,0.71,4.56-0.32,6.18-1.46c0.67-0.47,1.07-1.22,1.55-1.91c1.79-2.57,2.62-6.23,2.44-9.79
			c-0.08-1.47-0.07-2.93-0.56-3.91c-0.51-1.03-2.25-1.95-3.27-1.02c-0.19-1,0.85-1.62,2.06-1.26C25.71,4.69,24.8,3.35,23.57,2.65
			L23.57,2.65z M27.57,35.71c1.68-0.83,4.81-2.24,5.86,0c0.39,0.83,0.84,2.23,1.04,3.08c0.28,1.21-0.31,3.74-1.55,4.14
			c-1.09,0.36-2.37,0.34-3.69,0.07c-0.16-0.13-0.33-0.35-0.45-0.59c-0.94-0.04-1.82,0.05-2.57,0.44c0.07,0.7-0.4,0.81-0.84,0.95
			c-0.33,1.3,0.65,2.99,0.42,4.17c-0.17,0.84-1.2,0.97-1.97,1.13c-0.02,0.47,0.03,0.86,0.09,1.26c-0.17,0.64-0.96,1.01-1.7,1.1
			c-2.44,0.29-6.14,0.42-8.48-0.42c-0.65-1.6-1.17-3.55-1.71-5.39c-2.29,0.24-4.13-0.99-5.88-1.79c-0.6-0.28-1.44-0.43-1.66-0.91
			c-0.22-0.46-0.13-1.36-0.18-2.2c-0.14-2.15-0.26-4.22-0.82-6.42c-0.25-0.99-0.7-1.86-1.01-2.81c-0.29-0.88-0.79-1.97-0.92-2.85
			c-0.19-1.3,1.03-1.38,1.82-1.94c1.21-0.87,2.17-1.36,3.48-2.15c0.39-0.23,1.56-0.82,1.7-1.1c0.27-0.54-0.46-1.3-0.65-1.72
			c-0.3-0.67-0.46-1.24-0.51-1.9c-1.1-0.17-1.94-0.83-2.44-1.57c-0.84-1.22-1.41-3.49-0.69-5.21c0.06-0.14,0.34-0.4,0.38-0.61
			c0.08-0.41-0.15-0.96-0.17-1.39C4.39,8.84,4.85,6.91,6.36,6.23c0.61-2.44,2.8-3.25,4.87-4.46c0.77-0.45,1.62-0.74,2.5-1.07
			c3.15-1.16,7.99-0.94,10.6,1.04c1.11,0.84,2.88,2.61,3.52,3.89c1.67,3.38,1.56,9.04,0.38,13.16c-0.16,0.55-0.39,1.37-0.7,2.03
			c-0.22,0.46-0.91,1.39-0.83,1.8c0.09,0.42,1.58,1.55,1.89,1.86c0.57,0.55,1.67,1.29,1.76,1.99c0.1,0.74-0.33,1.76-0.54,2.48
			C29.08,31.36,28.38,33.57,27.57,35.71"/>
		<path class="st4" d="M16.39,19.11c0.09-0.12,0.59-0.3,1.29,0.03c0,0-0.83,0.14-0.76,1.52l-0.35-0.07
			C16.58,20.59,16.22,19.34,16.39,19.11"/>
		<path class="st11" d="M22.45,30.98c0,0.21-0.17,0.38-0.38,0.38c-0.21,0-0.38-0.17-0.38-0.38c0-0.21,0.17-0.38,0.38-0.38
			C22.28,30.6,22.45,30.77,22.45,30.98"/>
		<path class="st9" d="M3.27,31.32h12.1c0.1,0,0.17,0.08,0.17,0.17v0.38c0,0.1-0.08,0.17-0.17,0.17H3.27c-0.1,0-0.17-0.08-0.17-0.17
			v-0.38C3.09,31.4,3.17,31.32,3.27,31.32z"/>
		<path class="st9" d="M17.63,31.32h10.71c0.1,0,0.17,0.08,0.17,0.17v0.38c0,0.1-0.08,0.17-0.17,0.17H17.63
			c-0.1,0-0.17-0.08-0.17-0.17v-0.38C17.46,31.4,17.53,31.32,17.63,31.32z"/>
		<path class="st9" d="M3.27,30.97h11.76c0.1,0,0.17,0.08,0.17,0.17v0.38c0,0.1-0.08,0.17-0.17,0.17H3.27
			c-0.1,0-0.17-0.08-0.17-0.17v-0.38C3.09,31.04,3.17,30.97,3.27,30.97z"/>
		<path class="st9" d="M18.69,30.97h9.65c0.1,0,0.17,0.08,0.17,0.17v0.38c0,0.1-0.08,0.17-0.17,0.17h-9.65
			c-0.1,0-0.17-0.08-0.17-0.17v-0.38C18.52,31.04,18.59,30.97,18.69,30.97z"/>
	</g>
</g>
</svg>
