<?xml version="1.0" encoding="utf-8"?>
<!-- Generator: Adobe Illustrator 20.1.0, SVG Export Plug-In . SVG Version: 6.00 Build 0)  -->
<svg version="1.1" id="Layer_1" xmlns="http://www.w3.org/2000/svg" xmlns:xlink="http://www.w3.org/1999/xlink" x="0px" y="0px"
	 viewBox="0 0 32 32" style="enable-background:new 0 0 32 32;" xml:space="preserve">
<style type="text/css">
	.st0{fill:#699F63;}
	.st1{fill-rule:evenodd;clip-rule:evenodd;fill:#333333;}
	.st2{fill-rule:evenodd;clip-rule:evenodd;fill:#699F63;}
	.st3{clip-path:url(#XMLID_5_);}
	.st4{fill:none;}
	.st5{fill:url(#SVGID_1_);}
	.st6{fill:url(#SVGID_2_);}
	.st7{fill:url(#SVGID_3_);}
	.st8{fill:url(#SVGID_4_);}
	.st9{fill:url(#SVGID_5_);}
	.st10{fill:url(#SVGID_6_);}
</style>
<g>
	<g>
		<path class="st0" d="M15.82,25.65c-0.11,0-0.21-0.03-0.3-0.08L14.55,25c-0.14-0.08-0.07-0.11-0.03-0.13
			c0.19-0.07,0.23-0.08,0.44-0.2c0.02-0.01,0.05-0.01,0.07,0.01l0.74,0.44c0.03,0.01,0.06,0.01,0.09,0l2.89-1.67
			c0.03-0.02,0.04-0.05,0.04-0.08v-3.34c0-0.03-0.02-0.06-0.04-0.08l-2.89-1.67c-0.03-0.02-0.06-0.02-0.09,0l-2.89,1.67
			c-0.03,0.02-0.05,0.05-0.05,0.08v3.34c0,0.03,0.02,0.06,0.05,0.08l0.79,0.46c0.43,0.21,0.69-0.04,0.69-0.29v-3.29
			c0-0.05,0.04-0.08,0.08-0.08h0.37c0.05,0,0.08,0.04,0.08,0.08v3.29c0,0.57-0.31,0.9-0.86,0.9c-0.17,0-0.3,0-0.67-0.18l-0.76-0.44
			c-0.19-0.11-0.3-0.31-0.3-0.53v-3.34c0-0.22,0.12-0.42,0.3-0.53l2.89-1.67c0.18-0.1,0.43-0.1,0.61,0l2.89,1.67
			c0.19,0.11,0.3,0.31,0.3,0.53v3.34c0,0.22-0.12,0.42-0.3,0.53l-2.89,1.67C16.03,25.62,15.92,25.65,15.82,25.65z"/>
		<path class="st0" d="M16.71,23.35c-1.26,0-1.53-0.58-1.53-1.07c0-0.05,0.04-0.08,0.08-0.08h0.37c0.04,0,0.08,0.03,0.08,0.07
			c0.06,0.38,0.22,0.57,0.99,0.57c0.61,0,0.87-0.14,0.87-0.46c0-0.19-0.07-0.32-1.02-0.42c-0.79-0.08-1.28-0.25-1.28-0.89
			c0-0.58,0.49-0.93,1.32-0.93c0.93,0,1.38,0.32,1.44,1.01c0,0.02-0.01,0.05-0.02,0.06c-0.02,0.02-0.04,0.03-0.06,0.03h-0.38
			c-0.04,0-0.07-0.03-0.08-0.07c-0.09-0.4-0.31-0.53-0.9-0.53c-0.66,0-0.74,0.23-0.74,0.41c0,0.21,0.09,0.27,0.99,0.39
			c0.89,0.12,1.31,0.28,1.31,0.91C18.15,22.99,17.62,23.35,16.71,23.35z"/>
	</g>
	<g>
		<path class="st0" d="M20.88,19.86c0,0.31-0.25,0.56-0.56,0.56c-0.3,0-0.56-0.25-0.56-0.56c0-0.32,0.26-0.56,0.56-0.56
			C20.62,19.3,20.88,19.54,20.88,19.86z M19.85,19.86c0,0.26,0.21,0.47,0.47,0.47c0.26,0,0.47-0.21,0.47-0.47
			c0-0.26-0.21-0.47-0.47-0.47C20.06,19.39,19.85,19.59,19.85,19.86z M20.11,19.54h0.22c0.07,0,0.22,0,0.22,0.17
			c0,0.11-0.07,0.14-0.12,0.15c0.09,0.01,0.09,0.06,0.1,0.14c0.01,0.05,0.01,0.14,0.03,0.16h-0.13c0-0.03-0.02-0.19-0.02-0.2
			c-0.01-0.04-0.02-0.05-0.06-0.05h-0.11v0.25h-0.12V19.54z M20.23,19.82h0.1c0.08,0,0.09-0.06,0.09-0.09
			c0-0.09-0.06-0.09-0.09-0.09h-0.1V19.82z"/>
	</g>
	<path class="st1" d="M6.87,12.6c0-0.13-0.07-0.26-0.19-0.32l-3.06-1.76c-0.05-0.03-0.11-0.05-0.17-0.05c-0.01,0-0.03,0-0.03,0
		c-0.06,0-0.12,0.02-0.17,0.05l-3.06,1.76C0.07,12.35,0,12.47,0,12.6l0.01,4.75c0,0.07,0.03,0.13,0.09,0.16
		c0.06,0.03,0.13,0.03,0.18,0l1.82-1.04c0.12-0.07,0.19-0.19,0.19-0.32v-2.22c0-0.13,0.07-0.25,0.18-0.32l0.78-0.45
		c0.06-0.03,0.12-0.05,0.19-0.05c0.06,0,0.13,0.02,0.18,0.05l0.78,0.45c0.11,0.07,0.19,0.19,0.19,0.32v2.22
		c0,0.13,0.07,0.25,0.19,0.32l1.82,1.04c0.06,0.03,0.13,0.03,0.19,0c0.06-0.03,0.09-0.09,0.09-0.16L6.87,12.6z"/>
	<path class="st1" d="M21.61,6.08c-0.06-0.03-0.13-0.03-0.18,0c-0.06,0.03-0.09,0.09-0.09,0.16v4.7c0,0.05-0.02,0.09-0.06,0.11
		c-0.04,0.02-0.09,0.02-0.13,0l-0.77-0.44c-0.11-0.07-0.26-0.07-0.37,0l-3.07,1.77c-0.11,0.07-0.19,0.19-0.19,0.32v3.54
		c0,0.13,0.07,0.25,0.19,0.32L20,18.33c0.11,0.07,0.26,0.07,0.37,0l3.07-1.77c0.11-0.07,0.19-0.19,0.19-0.32V7.42
		c0-0.13-0.07-0.26-0.19-0.32L21.61,6.08z M21.33,15.08c0,0.03-0.02,0.06-0.05,0.08l-1.05,0.61c-0.03,0.02-0.06,0.02-0.09,0
		l-1.05-0.61c-0.03-0.02-0.05-0.05-0.05-0.08v-1.22c0-0.03,0.02-0.06,0.05-0.08l1.05-0.61c0.03-0.02,0.06-0.02,0.09,0l1.05,0.61
		c0.03,0.02,0.05,0.05,0.05,0.08V15.08z"/>
	<g>
		<path class="st1" d="M31.82,13.83c0.11-0.07,0.18-0.19,0.18-0.32v-0.86c0-0.13-0.07-0.25-0.18-0.32l-3.05-1.77
			c-0.11-0.07-0.26-0.07-0.37,0l-3.06,1.77c-0.11,0.07-0.19,0.19-0.19,0.32v3.54c0,0.13,0.07,0.26,0.19,0.32l3.04,1.74
			c0.11,0.06,0.25,0.06,0.36,0l1.84-1.02c0.06-0.03,0.09-0.09,0.1-0.16c0-0.07-0.04-0.13-0.09-0.16l-3.08-1.77
			c-0.06-0.03-0.09-0.09-0.09-0.16v-1.11c0-0.07,0.04-0.13,0.09-0.16l0.96-0.55c0.06-0.03,0.13-0.03,0.18,0l0.96,0.55
			c0.06,0.03,0.09,0.09,0.09,0.16v0.87c0,0.07,0.04,0.13,0.09,0.16c0.06,0.03,0.13,0.03,0.19,0L31.82,13.83z"/>
		<path class="st2" d="M28.54,13.66c0.02-0.01,0.05-0.01,0.07,0L29.2,14c0.02,0.01,0.04,0.04,0.04,0.06v0.68
			c0,0.03-0.01,0.05-0.04,0.06l-0.59,0.34c-0.02,0.01-0.05,0.01-0.07,0l-0.59-0.34c-0.02-0.01-0.04-0.04-0.04-0.06v-0.68
			c0-0.03,0.01-0.05,0.04-0.06L28.54,13.66z"/>
	</g>
	<g>
		<defs>
			<path id="XMLID_143_" d="M11.99,10.58c-0.11-0.07-0.25-0.07-0.37,0l-3.05,1.76c-0.11,0.07-0.18,0.19-0.18,0.32v3.52
				c0,0.13,0.07,0.25,0.18,0.32l3.05,1.76c0.11,0.07,0.25,0.07,0.37,0l3.05-1.76c0.11-0.07,0.18-0.19,0.18-0.32v-3.52
				c0-0.13-0.07-0.25-0.18-0.32L11.99,10.58z"/>
		</defs>
		<linearGradient id="XMLID_4_" gradientUnits="userSpaceOnUse" x1="13.0494" y1="11.8917" x2="10.2959" y2="17.5089">
			<stop  offset="0" style="stop-color:#41873F"/>
			<stop  offset="0.3288" style="stop-color:#418B3D"/>
			<stop  offset="0.6352" style="stop-color:#419637"/>
			<stop  offset="0.9319" style="stop-color:#3FA92D"/>
			<stop  offset="1" style="stop-color:#3FAE2A"/>
		</linearGradient>
		<use xlink:href="#XMLID_143_"  style="overflow:visible;fill-rule:evenodd;clip-rule:evenodd;fill:url(#XMLID_4_);"/>
		<clipPath id="XMLID_5_">
			<use xlink:href="#XMLID_143_"  style="overflow:visible;"/>
		</clipPath>
		<g class="st3">
			<path class="st4" d="M11.62,10.58l-3.24,1.76C8.27,12.41,8,12.53,8,12.66v3.52c0,0.09,0.22,0.17,0.28,0.23l3.52-5.87
				C11.71,10.52,11.7,10.53,11.62,10.58z"/>
			<path class="st4" d="M11.91,18.29c0.03-0.01,0.06-0.02,0.09-0.04l3.43-1.76c0.11-0.07,0.57-0.19,0.57-0.32v-3.52
				c0-0.1-0.42-0.19-0.49-0.26L11.91,18.29z"/>
			<linearGradient id="SVGID_1_" gradientUnits="userSpaceOnUse" x1="11.3463" y1="14.8314" x2="19.0724" y2="9.1229">
				<stop  offset="0.1376" style="stop-color:#41873F"/>
				<stop  offset="0.4032" style="stop-color:#54A044"/>
				<stop  offset="0.7136" style="stop-color:#66B848"/>
				<stop  offset="0.9081" style="stop-color:#6CC04A"/>
			</linearGradient>
			<path class="st5" d="M15.05,12.34l-3.06-1.76c-0.03-0.02-0.06-0.03-0.1-0.04l-3.43,5.87c0.03,0.03,0.06,0.06,0.1,0.08l3.06,1.76
				c0.09,0.05,0.19,0.06,0.28,0.04l3.22-5.89C15.11,12.38,15.08,12.36,15.05,12.34z"/>
		</g>
		<g class="st3">
			<path class="st4" d="M16,16.18v-3.52c0-0.13-0.46-0.25-0.57-0.32l-3.25-1.76c-0.04-0.02-0.17-0.03-0.21-0.04l3.68,5.72
				C15.66,16.24,16,16.21,16,16.18z"/>
			<path class="st4" d="M8.38,12.34C8.27,12.41,8,12.53,8,12.66v3.52c0,0.13,0.27,0.25,0.38,0.32l3.15,1.76
				c0.07,0.04,0.2,0.06,0.28,0.05l-3.35-5.97L8.38,12.34z"/>
			<linearGradient id="SVGID_2_" gradientUnits="userSpaceOnUse" x1="8.2867" y1="9.9473" x2="15.3336" y2="9.9473">
				<stop  offset="0.0919" style="stop-color:#6CC04A"/>
				<stop  offset="0.2864" style="stop-color:#66B848"/>
				<stop  offset="0.5968" style="stop-color:#54A044"/>
				<stop  offset="0.8624" style="stop-color:#41873F"/>
			</linearGradient>
			<polygon class="st6" points="11.52,9.94 11.48,9.96 11.54,9.96 			"/>
			<linearGradient id="SVGID_3_" gradientUnits="userSpaceOnUse" x1="8.2867" y1="14.419" x2="15.3336" y2="14.419">
				<stop  offset="0.0919" style="stop-color:#6CC04A"/>
				<stop  offset="0.2864" style="stop-color:#66B848"/>
				<stop  offset="0.5968" style="stop-color:#54A044"/>
				<stop  offset="0.8624" style="stop-color:#41873F"/>
			</linearGradient>
			<path class="st7" d="M15.05,16.5c0.09-0.05,0.16-0.14,0.18-0.23l-3.35-5.72c-0.09-0.02-0.18,0-0.26,0.04l-3.04,1.75l3.28,5.97
				c0.05-0.01,0.09-0.02,0.13-0.05L15.05,16.5z"/>
			<linearGradient id="SVGID_4_" gradientUnits="userSpaceOnUse" x1="8.2867" y1="16.4307" x2="15.3336" y2="16.4307">
				<stop  offset="0.0919" style="stop-color:#6CC04A"/>
				<stop  offset="0.2864" style="stop-color:#66B848"/>
				<stop  offset="0.5968" style="stop-color:#54A044"/>
				<stop  offset="0.8624" style="stop-color:#41873F"/>
			</linearGradient>
			<polygon class="st8" points="15.33,16.44 15.31,16.41 15.31,16.45 			"/>
			<linearGradient id="SVGID_5_" gradientUnits="userSpaceOnUse" x1="7.5747" y1="17.34" x2="16.0242" y2="17.34">
				<stop  offset="0.0919" style="stop-color:#6CC04A"/>
				<stop  offset="0.2864" style="stop-color:#66B848"/>
				<stop  offset="0.5968" style="stop-color:#54A044"/>
				<stop  offset="0.8624" style="stop-color:#41873F"/>
			</linearGradient>
			<path class="st9" d="M15.05,16.5L12,18.26c-0.04,0.02-0.09,0.04-0.13,0.05l0.4,0.11L16,16.45v-0.05l-0.43-0.14
				C15.55,16.36,15.14,16.45,15.05,16.5z"/>
			<linearGradient id="SVGID_6_" gradientUnits="userSpaceOnUse" x1="16.8117" y1="11.5045" x2="12.2886" y2="20.7316">
				<stop  offset="0" style="stop-color:#41873F"/>
				<stop  offset="0.3288" style="stop-color:#418B3D"/>
				<stop  offset="0.6352" style="stop-color:#419637"/>
				<stop  offset="0.9319" style="stop-color:#3FA92D"/>
				<stop  offset="1" style="stop-color:#3FAE2A"/>
			</linearGradient>
			<path class="st10" d="M15.05,16.5L12,18.26c-0.04,0.02-0.09,0.04-0.13,0.05l0.4,0.11L16,16.45v-0.05l-0.43-0.14
				C15.55,16.36,15.14,16.45,15.05,16.5z"/>
		</g>
	</g>
</g>
</svg>
