<?xml version="1.0" encoding="UTF-8"?>
<svg width="18px" height="18px" viewBox="0 0 18 18" version="1.1" xmlns="http://www.w3.org/2000/svg" xmlns:xlink="http://www.w3.org/1999/xlink">
    <!-- Generator: Sketch 58 (84663) - https://sketch.com -->
    <title>Eyecon</title>
    <desc>Created with Sketch.</desc>
    <g id="Eyecon" stroke="none" stroke-width="1" fill="none" fill-rule="evenodd">
        <path d="M4.65560998,2.27845219 L4.66898395,2.29182616 L4.66898395,2.29182616 L6.84848259,4.51085493 C7.54887587,4.3064504 8.26604835,4.20424813 9,4.20424813 C11.8594775,4.20424813 14.4642666,5.75555955 16.8143671,8.85818238 C17.057793,9.17955533 17.0821361,9.61133859 16.8873961,9.95479406 L16.8143685,10.0657352 L16.5785349,10.3708486 C15.9464288,11.1717606 15.2961607,11.8620475 14.6277306,12.4417093 L16.4011943,14.2480641 C16.7828448,14.6370022 16.7828448,15.2599023 16.4011943,15.6488404 L16.3429727,15.7081738 C15.956159,16.1023738 15.3230223,16.1083615 14.9288223,15.7215478 L14.9154484,15.7081738 L3.18323801,3.75193591 C2.80158754,3.36299779 2.80158754,2.74009768 3.18323801,2.35115956 L3.24145966,2.29182616 C3.62827337,1.89762622 4.26141003,1.89163848 4.65560998,2.27845219 Z M3.98146992,5.98839071 L5.38850992,7.42414609 C5.0598045,8.02785126 4.87262171,8.72264218 4.87262171,9.4619868 C4.87262171,11.7850019 6.72051191,13.6681777 9,13.6681777 C9.72569799,13.6681777 10.4076522,13.477312 11.0001634,13.1421523 L11.9658516,14.126284 C11.0097107,14.5219116 10.0210935,14.7197255 9,14.7197255 C6.14052248,14.7197255 3.53573343,13.1684141 1.18563286,10.0657912 C0.942206958,9.74441827 0.917863912,9.31263501 1.11260395,8.96917955 L1.18563148,8.85823841 L1.42146513,8.55312502 C2.24404343,7.5108745 3.09737836,6.65596306 3.98146992,5.98839071 Z M6.15839353,8.20867337 L10.2300693,12.3577482 C9.85304074,12.5243055 9.43710011,12.61663 9,12.61663 C7.29038393,12.61663 5.90446628,11.2042481 5.90446628,9.4619868 C5.90446628,9.01663457 5.99502246,8.59283674 6.15839353,8.20867337 Z M9,5.25579587 C8.57006066,5.25579587 8.15547522,5.32278905 7.76574674,5.44709091 L8.63123432,6.32949594 C8.75215636,6.31486802 8.87521593,6.3073436 9,6.3073436 C10.7096161,6.3073436 12.0955337,7.71972547 12.0955337,9.4619868 C12.0955337,9.58901588 12.0881663,9.71429135 12.0738431,9.83739363 L12.9399188,10.7189901 C13.0617306,10.3220577 13.1273783,9.89983505 13.1273783,9.4619868 C13.1273783,7.13897169 11.2794881,5.25579587 9,5.25579587 Z" id="Combined-Shape" fill="#72767B"></path>
    </g>
</svg>